# xmcd
#
# Track frame offsets:
#	150
#	23337
#	50019
#	71250
#	95014
#	117920
#	146000
#
# Disc length: 2277 seconds
#
# Revision: 1
# Processed by: cddbd v1.5.1PL2 Copyright (c) Steve Scherf et al.
# Submitted via: audiograbber 1.83.01
#
DISCID=5908e307
DTITLE=Johnny Guitar Watson - A Real Mother
DYEAR=1900
DGENRE=
TTITLE0=A real Mother for ya
TTITLE1=Nothing left to be desired
TTITLE2=Your love my love
TTITLE3=The real deal
TTITLE4=Tarzan
TTITLE5=I Wanna thank you
TTITLE6=Lovers Jones
EXTD=Schallplatte
EXTT0=
EXTT1=
EXTT2=
EXTT3=
EXTT4=
EXTT5=
EXTT6=
PLAYORDER=
